<?xml version="1.0" encoding="UTF-8"?>
<!DOCTYPE svg  PUBLIC '-//W3C//DTD SVG 1.1//EN'  'http://www.w3.org/Graphics/SVG/1.1/DTD/svg11.dtd' [
	<!ENTITY ns_extend "http://ns.adobe.com/Extensibility/1.0/">
	<!ENTITY ns_ai "http://ns.adobe.com/AdobeIllustrator/10.0/">
	<!ENTITY ns_graphs "http://ns.adobe.com/Graphs/1.0/">
	<!ENTITY ns_vars "http://ns.adobe.com/Variables/1.0/">
	<!ENTITY ns_imrep "http://ns.adobe.com/ImageReplacement/1.0/">
	<!ENTITY ns_sfw "http://ns.adobe.com/SaveForWeb/1.0/">
	<!ENTITY ns_custom "http://ns.adobe.com/GenericCustomNamespace/1.0/">
	<!ENTITY ns_adobe_xpath "http://ns.adobe.com/XPath/1.0/">
]>
<svg width="385.93px" height="311.85px" enable-background="new 0 0 385.926 311.852" version="1.1" viewBox="0 0 385.926 311.852" xml:space="preserve" xmlns="http://www.w3.org/2000/svg">
<path d="m284.02 155.92c0-3.609-1.686-7.124-5.01-10.448-7.1-7.1-21.258-12.88-39.264-16.562 5.814-17.434 7.889-32.586 5.289-42.285-1.217-4.541-3.418-7.758-6.543-9.563-3.126-1.804-7.014-2.103-11.554-0.886-9.699 2.599-21.784 11.971-33.975 25.723-12.191-13.751-24.276-23.124-33.976-25.723-4.541-1.217-8.428-0.918-11.553 0.886-3.125 1.805-5.327 5.022-6.544 9.563-2.595 9.684-0.532 24.805 5.262 42.206-26.691 5.419-44.247 15.416-44.247 27.088 0 3.609 1.686 7.125 5.01 10.449 7.1 7.1 21.259 12.879 39.264 16.561-5.814 17.434-7.888 32.586-5.29 42.285 1.217 4.541 3.418 7.758 6.544 9.562 10.109 5.836 27.542-4.374 45.58-24.777 12.174 13.72 24.238 23.068 33.923 25.663 4.541 1.217 8.429 0.919 11.554-0.886 10.108-5.836 9.983-26.039 1.332-51.862 17.969-3.683 32.097-9.456 39.187-16.546 3.32-3.31 5.01-6.83 5.01-10.44zm-56.57-77.833c4.017-1.076 7.399-0.845 10.055 0.688 2.654 1.533 4.547 4.346 5.623 8.362 2.525 9.428 0.449 24.262-5.307 41.393-8.345-1.613-17.461-2.786-27.059-3.437-5.362-7.986-10.937-15.295-16.506-21.714 11.97-13.551 23.78-22.766 33.21-25.293zm-8.98 92.563c-2.855 4.945-5.807 9.685-8.809 14.203-5.41 0.341-10.99 0.521-16.694 0.521-5.684 0-11.265-0.184-16.697-0.529-3.016-4.532-5.965-9.274-8.807-14.195-2.842-4.922-5.473-9.848-7.891-14.725 2.418-4.877 5.049-9.803 7.891-14.724 2.841-4.921 5.791-9.663 8.807-14.196 5.433-0.345 11.014-0.528 16.697-0.528 5.682 0 11.264 0.184 16.696 0.528 3.016 4.533 5.965 9.275 8.807 14.196 2.854 4.943 5.48 9.865 7.893 14.722-2.43 4.88-5.06 9.8-7.9 14.73zm8.98-12.5c3.904 8.064 7.17 15.913 9.758 23.327-7.707 1.464-16.137 2.557-25.062 3.206 2.728-4.165 5.414-8.513 8.03-13.046 2.6-4.51 5.02-9.02 7.27-13.49zm-19.17 28.75c-5.025 7.404-10.183 14.149-15.304 20.092-5.154-5.971-10.32-12.73-15.323-20.092 4.999 0.29 10.114 0.445 15.312 0.445 5.19 0.01 10.31-0.15 15.31-0.44zm-34.49-2.23c-8.869-0.65-17.3-1.744-25.043-3.221 2.592-7.445 5.861-15.293 9.732-23.299 2.249 4.475 4.671 8.982 7.27 13.482s5.29 8.86 8.04 13.04zm-15.31-30.98c-3.871-8.006-7.141-15.854-9.732-23.298 7.743-1.478 16.173-2.57 25.042-3.221-2.751 4.185-5.442 8.537-8.04 13.037-2.6 4.5-5.02 9.01-7.27 13.48zm19.19-28.77c4.994-7.348 10.152-14.096 15.299-20.058 5.15 5.967 10.312 12.722 15.311 20.077-4.999-0.29-10.114-0.445-15.311-0.445-5.23 0-10.34 0.14-15.3 0.42zm42.51 15.29c-2.598-4.5-5.289-8.853-8.04-13.037 8.869 0.651 17.3 1.744 25.042 3.221-2.59 7.439-5.856 15.282-9.725 23.283-2.25-4.43-4.67-8.93-7.28-13.46zm-77.38-53.072c1.076-4.016 2.968-6.83 5.623-8.362 2.655-1.533 6.037-1.765 10.054-0.688 9.427 2.526 21.236 11.742 33.194 25.292-5.564 6.414-11.135 13.716-16.492 21.694-9.707 0.639-18.819 1.792-27.099 3.379-5.73-17.09-7.79-31.898-5.27-41.312zm-34.49 77.832c-2.94-2.939-4.431-5.984-4.431-9.051 0-3.065 1.491-6.111 4.431-9.051 6.901-6.901 20.787-12.52 38.5-16.1 2.775 8.032 6.318 16.514 10.552 25.151-4.234 8.637-7.777 17.119-10.553 25.151-17.71-3.58-31.59-9.2-38.5-16.1zm40.11 68.1c-2.655-1.533-4.547-4.348-5.623-8.363-2.526-9.428-0.449-24.262 5.307-41.393 8.344 1.613 17.461 2.786 27.059 3.438 5.368 7.994 10.949 15.311 16.523 21.736-17.33 19.67-34.04 29.9-43.27 24.57zm89.08 0c-2.656 1.532-6.038 1.764-10.055 0.688-9.414-2.522-21.203-11.715-33.143-25.234 5.514-6.377 11.068-13.686 16.475-21.773 9.602-0.652 18.721-1.826 27.066-3.441 8.38 24.84 8.88 44.42-0.35 49.75zm1.7-51.99c-2.767-7.973-6.321-16.446-10.627-25.182 4.23-8.631 7.771-17.106 10.544-25.133 17.713 3.58 31.598 9.199 38.499 16.1 2.94 2.94 4.431 5.985 4.431 9.051 0 10.65-17.17 19.99-42.84 25.16z"/>
</svg>
